name C:\Users\u0101727\Documents\MyRepositories\upper-imu-dc\Results\main_tracking\Case_52\kinematics.mot
datacolumns 10
datarows 23
range 0.70000000 0.92000000
endheader 
time	clav_prot	clav_elev	scapula_abduction	scapula_elevation	scapula_upward_rot	scapula_winging	plane_elv	shoulder_elv	axial_rot	
          0.70000000	        -19.63135299	         -4.66867157	         -7.06249805	         -4.43081248	         13.47756095	          5.17535531	        -25.03268534	         15.08936080	         51.08075058	
          0.71000000	        -19.39565355	         -4.86848481	         -6.58736762	         -4.39129041	         13.40891455	          5.18538890	        -24.93744739	         15.13664589	         50.87830432	
          0.72000000	        -19.41437503	         -4.83816977	         -6.66643823	         -4.35144610	         13.34142459	          5.19494376	        -24.84158824	         15.18582063	         50.67508130	
          0.73000000	        -19.43258957	         -4.80797811	         -6.74470079	         -4.31158400	         13.27370968	          5.20457398	        -24.74449253	         15.23458252	         50.46961347	
          0.74000000	        -19.45064582	         -4.77781360	         -6.82279575	         -4.27164477	         13.20575339	          5.21430188	        -24.64525998	         15.28230678	         50.26028236	
          0.75000000	        -19.46944237	         -4.74713824	         -6.90203103	         -4.23144021	         13.13822487	          5.22391149	        -24.54286485	         15.32882488	         50.04553088	
          0.76000000	        -19.49026564	         -4.71516203	         -6.98419352	         -4.19072945	         13.07224464	          5.23304597	        -24.43624528	         15.37403555	         49.82402281	
          0.77000000	        -19.51472439	         -4.68089600	         -7.07146426	         -4.14923870	         13.00931583	          5.24123205	        -24.32435479	         15.41776053	         49.59474643	
          0.78000000	        -19.54471572	         -4.64316703	         -7.16637149	         -4.10666505	         12.95129985	          5.24788445	        -24.20618003	         15.45968986	         49.35703806	
          0.79000000	        -19.58240250	         -4.60061883	         -7.27176092	         -4.06267257	         12.90040162	          5.25230369	        -24.08074260	         15.49935680	         49.11055343	
          0.80000000	        -19.63019747	         -4.55170764	         -7.39078018	         -4.01688414	         12.85915204	          5.25367212	        -23.94709970	         15.53612155	         48.85522840	
          0.81000000	        -19.69075580	         -4.49469455	         -7.52688245	         -3.96886905	         12.83038325	          5.25104950	        -23.80435487	         15.56915321	         48.59127516	
          0.82000000	        -19.76698083	         -4.42763588	         -7.68385915	         -3.91812681	         12.81719289	          5.24336957	        -23.65168467	         15.59740528	         48.31924499	
          0.83000000	        -19.86204748	         -4.34837372	         -7.86591348	         -3.86406729	         12.82288989	          5.22943996	        -23.48838191	         15.61958574	         48.04016218	
          0.84000000	        -19.97944637	         -4.25452932	         -8.07778703	         -3.80598561	         12.85090836	          5.20794875	        -23.31391346	         15.63412715	         47.75570554	
          0.85000000	        -20.12305068	         -4.14350026	         -8.32495464	         -3.74302775	         12.90466947	          5.17748176	        -23.12798925	         15.63916536	         47.46839262	
          0.86000000	        -20.29721203	         -4.01246061	         -8.61391433	         -3.67414008	         12.98736533	          5.13655499	        -22.93063921	         15.63253415	         47.18171591	
          0.87000000	        -20.50690364	         -3.85836042	         -8.95262635	         -3.59799248	         13.10163014	          5.08366855	        -22.72229335	         15.61178015	         46.90019123	
          0.88000000	        -20.75795211	         -3.67791753	         -9.35120860	         -3.51285967	         13.24904585	          5.01739139	        -22.50386032	         15.57419908	         46.62929803	
          0.89000000	        -21.05745150	         -3.46758734	         -9.82311049	         -3.41643385	         13.42939419	          4.93649239	        -22.27680114	         15.51689269	         46.37531616	
          0.90000000	        -21.41457853	         -3.22346580	        -10.38726034	         -3.30550830	         13.63949129	          4.84014002	        -22.04320398	         15.43685360	         46.14507837	
          0.91000000	        -21.84246776	         -2.94100943	        -11.07258619	         -3.17539251	         13.87123829	          4.72821570	        -21.80586518	         15.33117565	         45.94568126	
          0.92000000	        -22.36518461	         -2.61392661	        -11.93252103	         -3.01863943	         14.10819201	          4.60174624	        -21.56834290	         15.19768994	         45.78416469	
